<svg width="128" height="128" viewBox="0 0 128 128" xmlns="http://www.w3.org/2000/svg">
 <path fill="#f8d000" stroke="#685000" stroke-width="1.52" d="M33.7 63.2L64 3.4l30.3 59.8zm60.6 0l30.3 59.8H64zM64 123H3.4l30.3-59.8z"/>
 <path fill="#685000" d="M33.7 63.2h60.6L64 123z"/>
 <ellipse fill="#202038" cx="64" cy="84.6" rx="32.8" ry="35"/>
 <g stroke-linejoin="round" stroke-width=".762">
  <path fill="#f8d000" stroke="#906000" d="M41.3 62.1c8.9-8.22 17.4-12.4 28.1-10.3L41.3 67.5z"/>
  <path fill="#f89000" stroke="#903800" d="M37.9 67.5c-3.51 6.84-5.23 16.6-3.5 24.9l7.16 1.6z"/>
  <path fill="#f84800" stroke="#800800" d="M35.4 96.3c1.88 5.44 5.11 10.4 9.1 14.1l9.3-9.83z"/>
  <path fill="#f8d000" stroke="#906000" d="M86.7 107c-8.9 8.22-17.4 12.4-28.1 10.3l28.1-15.7z"/>
  <path fill="#f89000" stroke="#903800" d="M90.1 102c3.51-6.84 5.23-16.6 3.5-24.9l-7.16-1.6z"/>
  <path fill="#f84800" stroke="#800800" d="M92.6 72.9c-1.88-5.44-5.11-10.4-9.1-14.1l-9.3 9.83z"/>
 </g>
 <path fill="#00f8f0" stroke="#0060f0" stroke-width=".762" d="M81.9 74.7l5.33 22.5-51 30.1 36.2-38.9-4.19-3.81-10.1 9.9h-12l-5.33-22.5 51-30.1-36.2 38.9 4.19 3.81 10.1-9.9z"/>
 <path fill="#f8f800" d="M68.2 83l5.85 5.31-31.6 33.9 43.5-25.7-4.93-20.8h-10.6l-10.6 10.3-5.85-5.31 31.6-33.9-43.5 25.7L47 93.3h10.6z"/>
</svg>
